<svg width="22" height="14" viewBox="0 0 22 14" fill="none" xmlns="http://www.w3.org/2000/svg">
<path d="M10.75 11H11.475V10.2C11.9417 10.1333 12.3377 9.94167 12.663 9.625C12.9883 9.30833 13.1507 8.9 13.15 8.4C13.15 7.96667 12.9833 7.604 12.65 7.312C12.3167 7.02 11.9333 6.78267 11.5 6.6V4.75C11.6667 4.8 11.8043 4.88333 11.913 5C12.0217 5.11667 12.1007 5.25833 12.15 5.425L13.05 5.05C12.9333 4.7 12.7333 4.421 12.45 4.213C12.1667 4.005 11.85 3.86733 11.5 3.8V3H10.75V3.775C10.2833 3.825 9.88733 3.996 9.562 4.288C9.23667 4.58 9.07433 4.96733 9.075 5.45C9.075 5.9 9.246 6.275 9.588 6.575C9.93 6.875 10.3173 7.11667 10.75 7.3V9.275C10.4833 9.19167 10.2583 9.05 10.075 8.85C9.89167 8.65 9.76667 8.41667 9.7 8.15L8.825 8.525C8.95833 8.99167 9.19167 9.375 9.525 9.675C9.85833 9.975 10.2667 10.1583 10.75 10.225V11ZM11.5 9.25V7.6C11.6833 7.68333 11.846 7.78333 11.988 7.9C12.13 8.01667 12.2007 8.19167 12.2 8.425C12.2 8.69167 12.1333 8.87933 12 8.988C11.8667 9.09667 11.7 9.184 11.5 9.25ZM10.75 6.275C10.5667 6.19167 10.4 6.09167 10.25 5.975C10.1 5.85833 10.025 5.68333 10.025 5.45C10.025 5.21667 10.1 5.04567 10.25 4.937C10.4 4.82833 10.5667 4.75767 10.75 4.725V6.275ZM7 14C5.05 14 3.39567 13.3207 2.037 11.962C0.678334 10.6033 -0.000666176 8.94933 4.90436e-07 7C4.90436e-07 5.05 0.679334 3.39567 2.038 2.037C3.39667 0.678334 5.05067 -0.000666176 7 4.90436e-07H15C16.95 4.90436e-07 18.6043 0.679334 19.963 2.038C21.3217 3.39667 22.0007 5.05067 22 7C22 8.95 21.3207 10.6043 19.962 11.963C18.6033 13.3217 16.9493 14.0007 15 14H7ZM7 12H15C16.3833 12 17.5627 11.5123 18.538 10.537C19.5133 9.56167 20.0007 8.38267 20 7C20 5.61667 19.5123 4.43733 18.537 3.462C17.5617 2.48667 16.3827 1.99933 15 2H7C5.61667 2 4.43733 2.48767 3.462 3.463C2.48667 4.43833 1.99933 5.61733 2 7C2 8.38333 2.48767 9.56267 3.463 10.538C4.43833 11.5133 5.61733 12.0007 7 12Z" fill="#0081C9"/>
</svg>
