<svg width="20" height="18" viewBox="0 0 20 18" fill="none" xmlns="http://www.w3.org/2000/svg">
<path d="M2.96524 8.81774C2.88105 8.85896 2.79672 8.94125 2.77571 9.02368L0.016455 17.2382C-0.0677297 17.5059 0.184971 17.7735 0.458836 17.6912L4.01838 16.6L5.51387 7.70605L2.96524 8.81774Z" fill="#0081C9"/>
<path d="M5.07141 16.6412L9.4734 17.9793V8.83829L6.60895 7.58258L5.07141 16.6412Z" fill="#0081C9"/>
<path d="M13.2858 10.5883L11.7694 8.30307L10.5267 8.85898V18L14.9077 16.6619L13.9809 11.1443C13.707 11.0207 13.4543 10.8353 13.2858 10.5883V10.5883Z" fill="#0081C9"/>
<path d="M19.9835 17.2382L17.2242 9.04427C17.2032 8.9413 17.1189 8.87955 17.0347 8.83833L16.8662 8.75604L15.6445 10.5884C15.497 10.8148 15.2865 10.9796 15.0548 11.0825L15.9816 16.6001L19.5411 17.6912C19.815 17.7736 20.0677 17.506 19.9835 17.2383L19.9835 17.2382Z" fill="#0081C9"/>
<path d="M18.3617 3.71198C18.3195 1.73547 16.6978 0.109099 14.6758 0.00615931C12.4221 -0.117346 10.5476 1.63253 10.5476 3.81492C10.5476 4.51487 10.7371 5.15305 11.0742 5.709L14.0018 10.1354C14.2125 10.4648 14.7179 10.4648 14.9286 10.1354L17.8562 5.709C18.1932 5.13254 18.3828 4.43244 18.3617 3.71198H18.3617ZM14.4652 5.66779C13.4121 5.66779 12.5485 4.82365 12.5485 3.79425C12.5485 2.76486 13.4121 1.92072 14.4652 1.92072C15.5183 1.92072 16.3819 2.76486 16.3819 3.79425C16.3819 4.82365 15.5183 5.66779 14.4652 5.66779Z" fill="#0081C9"/>
</svg>
