<svg width="20" height="20" viewBox="0 0 20 20" fill="none" xmlns="http://www.w3.org/2000/svg">
<path d="M10.5672 0.577743C10.5672 0.24447 10.3225 0 10.0111 0C9.69962 0 9.45489 0.244455 9.45489 0.555561V0.577727C4.1824 0.866666 0 5.22222 0 10.5556C0 10.7112 0.0667284 10.8445 0.155803 10.9555C0.978895 11.7777 2.09124 12.2444 3.27028 12.2444C4.1379 12.2444 4.98332 12 5.69514 11.5111L6.11787 11.2221L7.11894 11.7777C7.83091 12.1776 8.63164 12.4221 9.43252 12.511V18.3333C9.43252 18.6444 9.1878 18.8889 8.87635 18.8889C8.56491 18.8889 8.32018 18.6444 8.32018 18.3333C8.32018 18.0222 8.07546 17.7778 7.76401 17.7778C7.45257 17.7778 7.20784 18.0222 7.20784 18.3333C7.20784 19.2445 7.96419 20 8.87635 20C9.78851 20 10.5449 19.2445 10.5449 18.3333L10.545 12.5114C11.3681 12.4226 12.1468 12.1782 12.8586 11.7781L13.8597 11.2225L14.2824 11.5115C15.0165 12.0004 15.8396 12.2448 16.7296 12.2448C17.9087 12.2448 18.9988 11.7781 19.8441 10.9559C19.9554 10.8448 19.9999 10.7115 19.9999 10.556C20.0221 5.22261 15.8397 0.867032 10.5672 0.577743ZM5.85091 10.0667C5.82872 10.0667 5.82872 10.0667 5.80637 10.0889L5.0944 10.5778C4.56043 10.9334 3.91532 11.1333 3.27008 11.1333C2.46919 11.1333 1.71284 10.8444 1.11214 10.3333C1.2234 6.08885 4.33789 2.57771 8.40909 1.82214C6.94092 3.15557 5.91765 6.28885 5.85091 10.0667L5.85091 10.0667ZM12.347 10.8001C11.635 11.2 10.8343 11.4223 10.011 11.4223C9.18793 11.4223 8.38705 11.2 7.67507 10.8001L6.38475 10.0667C6.49602 5.46668 8.0978 1.66664 9.9887 1.66664C11.8798 1.66664 13.5037 5.46676 13.5926 10.0667L12.347 10.8001ZM16.7518 11.1333C16.1068 11.1333 15.4837 10.9334 14.9275 10.5778L14.2156 10.0889C14.1934 10.0889 14.1934 10.0889 14.171 10.0667C14.0821 6.28894 13.0587 3.15554 11.6127 1.79997C15.6839 2.55549 18.7984 6.06668 18.9097 10.3112C18.309 10.8445 17.5526 11.1333 16.7517 11.1333L16.7518 11.1333Z" fill="#0081C9"/>
</svg>
