<svg width="20" height="20" viewBox="0 0 20 20" fill="none" xmlns="http://www.w3.org/2000/svg">
<path d="M10 13.8461H10.7692C10.9067 13.8461 11.0337 13.7728 11.1023 13.6538C11.171 13.5348 11.171 13.3882 11.1023 13.2692C11.0337 13.1502 10.9067 13.0769 10.7692 13.0769H10.3846V12.6923C10.3846 12.5548 10.3113 12.4279 10.1923 12.3592C10.0733 12.2905 9.9267 12.2905 9.80772 12.3592C9.68873 12.4279 9.61541 12.5548 9.61541 12.6923V13.1461C9.27355 13.2701 9.01017 13.5482 8.90465 13.8962C8.79923 14.2444 8.86413 14.6218 9.0797 14.9147C9.29527 15.2076 9.63635 15.3817 10 15.3845C10.1375 15.3845 10.2644 15.4579 10.3331 15.5768C10.4018 15.6958 10.4018 15.8425 10.3331 15.9615C10.2644 16.0804 10.1375 16.1538 10 16.1538H9.2308C9.09335 16.1538 8.96638 16.2271 8.8977 16.3461C8.82902 16.4651 8.82902 16.6117 8.8977 16.7307C8.96638 16.8497 9.09335 16.923 9.2308 16.923H9.61541V17.3076C9.61541 17.445 9.68872 17.572 9.80771 17.6407C9.9267 17.7094 10.0733 17.7094 10.1923 17.6407C10.3113 17.572 10.3846 17.445 10.3846 17.3076V16.8538C10.7265 16.7297 10.9899 16.4517 11.0954 16.1036C11.2008 15.7555 11.1359 15.3781 10.9203 15.0852C10.7048 14.7923 10.3637 14.6182 10 14.6153C9.86257 14.6153 9.73561 14.542 9.66693 14.423C9.59825 14.304 9.59825 14.1574 9.66693 14.0384C9.73561 13.9194 9.86258 13.8461 10 13.8461Z" fill="#0081C9"/>
<path d="M10 10C8.67395 10 7.40223 10.5268 6.46444 11.4644C5.52678 12.4021 5 13.6739 5 15C5 16.3261 5.52678 17.5978 6.46444 18.5356C7.4021 19.4732 8.67386 20 10 20C11.3261 20 12.5978 19.4732 13.5356 18.5356C14.4732 17.5979 15 16.3261 15 15C15 13.6739 14.4732 12.4022 13.5356 11.4644C12.5979 10.5268 11.3261 10 10 10ZM10 19.2306C8.87793 19.2306 7.80179 18.7849 7.00839 17.9915C6.21495 17.198 5.76922 16.122 5.76922 14.9999C5.76922 13.8777 6.21495 12.8017 7.00839 12.0083C7.80183 11.2148 8.87786 10.7691 10 10.7691C11.1221 10.7691 12.1982 11.2148 12.9916 12.0083C13.785 12.8017 14.2308 13.8777 14.2308 14.9999C14.2308 16.122 13.785 17.1981 12.9916 17.9915C12.1982 18.7849 11.1221 19.2306 10 19.2306Z" fill="#0081C9"/>
<path d="M17.2219 1.66699H15.5548V0H14.4437V1.66699H5.55527V0H4.44422V1.66699H2.77814C1.24633 1.66699 0 2.91321 0 4.44498V17.222C0 18.7537 1.24629 20 2.77814 20H17.2219C18.7537 20 20 18.7538 20 17.222V4.44413C19.999 2.9124 18.7527 1.66716 17.2219 1.66716V1.66699ZM18.8879 17.2209C18.8879 18.1392 18.1403 18.8868 17.2219 18.8868H2.77814C1.8587 18.8868 1.11106 18.1392 1.11106 17.2209V7.22195H18.8879V17.2209ZM18.8879 6.11096H1.11106V4.44396C1.11106 3.52457 1.8587 2.77697 2.77814 2.77697H4.44523V3.88796H5.55532V2.77794H14.4438V3.88893H15.5548V2.77794H17.2219C18.1403 2.77794 18.888 3.52457 18.888 4.44392L18.8879 6.11096Z" fill="#0081C9"/>
</svg>
