<svg width="20" height="20" viewBox="0 0 20 20" fill="none" xmlns="http://www.w3.org/2000/svg">
<path d="M10 7.6922H11.5385C11.8134 7.6922 12.0673 7.54557 12.2047 7.30759C12.342 7.06961 12.342 6.77634 12.2047 6.53837C12.0673 6.30039 11.8134 6.15376 11.5385 6.15376H10.7693V5.38454C10.7693 5.10964 10.6226 4.85571 10.3847 4.71835C10.1467 4.58099 9.85341 4.58099 9.61543 4.71835C9.37746 4.85571 9.23082 5.10965 9.23082 5.38454V6.29213C8.54709 6.54023 8.02033 7.09638 7.8093 7.79246C7.59845 8.48871 7.72826 9.24352 8.1594 9.82936C8.59054 10.4152 9.2727 10.7634 10 10.7691C10.2749 10.7691 10.5289 10.9157 10.6662 11.1537C10.8036 11.3917 10.8036 11.6849 10.6662 11.9229C10.5289 12.1609 10.2749 12.3075 10 12.3075H8.46159C8.1867 12.3075 7.93276 12.4542 7.7954 12.6921C7.65804 12.9301 7.65804 13.2234 7.7954 13.4614C7.93276 13.6993 8.18671 13.846 8.46159 13.846H9.23081V14.6152C9.23081 14.8901 9.37744 15.144 9.61542 15.2814C9.8534 15.4187 10.1467 15.4187 10.3846 15.2814C10.6226 15.144 10.7693 14.8901 10.7693 14.6152V13.7076C11.453 13.4595 11.9797 12.9033 12.1908 12.2073C12.4016 11.511 12.2718 10.7562 11.8407 10.1704C11.4095 9.58452 10.7274 9.23631 10 9.23064C9.72515 9.23064 9.47121 9.08401 9.33385 8.84603C9.19649 8.60805 9.19649 8.31478 9.33385 8.07681C9.47121 7.83883 9.72516 7.6922 10 7.6922Z" fill="#0081C9"/>
<path d="M10 0C7.3479 0 4.80446 1.05357 2.92888 2.92888C1.05357 4.8042 0 7.34773 0 10C0 12.6523 1.05357 15.1955 2.92888 17.0711C4.8042 18.9464 7.34773 20 10 20C12.6523 20 15.1955 18.9464 17.0711 17.0711C18.9464 15.1958 20 12.6523 20 10C20 7.34773 18.9464 4.80446 17.0711 2.92888C15.1958 1.05357 12.6523 0 10 0ZM10 18.4613C7.75585 18.4613 5.60357 17.5698 4.01678 15.983C2.4299 14.3961 1.53844 12.244 1.53844 9.99974C1.53844 7.75546 2.4299 5.60331 4.01678 4.01652C5.60366 2.42964 7.75572 1.53818 10 1.53818C12.2443 1.53818 14.3964 2.42964 15.9832 4.01652C17.5701 5.6034 18.4616 7.75546 18.4616 9.99974C18.4616 12.244 17.5701 14.3962 15.9832 15.983C14.3963 17.5698 12.2443 18.4613 10 18.4613Z" fill="#0081C9"/>
</svg>
