<svg width="20" height="20" viewBox="0 0 20 20" fill="none" xmlns="http://www.w3.org/2000/svg">
<path d="M3.46445 11.6749H0.590449C0.275447 11.6749 0 11.9607 0 12.287V19.388C0 19.7145 0.275728 20 0.590449 20H3.46445C3.77945 20 4.05489 19.7142 4.05489 19.388L4.05517 12.287C4.01562 11.9604 3.77944 11.6749 3.46445 11.6749Z" fill="#0081C9"/>
<path d="M19.4095 2.89115e-05H16.5355C16.2205 2.89115e-05 15.9451 0.285837 15.9451 0.612061V7.71306C15.9451 8.03957 16.2208 8.32509 16.5355 8.32509H19.4095C19.7245 8.32509 20 8.03928 20 7.71306V0.571324C20 0.244808 19.7245 2.89115e-05 19.4095 2.89115e-05Z" fill="#0081C9"/>
<path d="M5.03908 8.44772C5.47217 8.44772 5.82642 8.28461 6.14146 7.95809L7.99189 5.9176L10.8266 5.26457H10.8659L9.44851 5.7135C9.17278 5.7952 8.9366 5.95831 8.73997 6.20313C8.54306 6.44794 8.46424 6.73374 8.46424 7.06028C8.42497 7.83574 9.05469 8.52944 9.80278 8.52944L11.8106 8.61114H11.9287C12.5192 8.61114 13.1099 8.44802 13.6215 8.16222L15.3931 7.10123L15.3934 0.734667L11.6532 0.612259C11.3775 0.612259 11.1021 0.652966 10.8263 0.775375L6.61379 2.53006C6.29879 2.65246 5.98379 2.89728 5.78686 3.18308L5.51113 3.5503C5.03877 4.20333 4.29071 5.22358 3.77875 5.87661C3.58184 6.16242 3.46375 6.48864 3.46375 6.81517C3.46375 7.22338 3.62111 7.63129 3.89684 7.91711C4.21211 8.28433 4.606 8.44772 5.03908 8.44772Z" fill="#0081C9"/>
<path d="M14.9606 11.5116C14.5275 11.5116 14.1732 11.6748 13.8582 12.0013L12.0078 14.0418L9.17306 14.6948L9.13378 14.6541L10.5511 14.2052C10.8269 14.1235 11.063 13.9603 11.2597 13.7155C11.4566 13.4707 11.5354 13.1849 11.5354 12.8584C11.5747 12.0829 10.9449 11.3892 10.1969 11.3892L8.22832 11.3078C7.59832 11.2671 6.96831 11.4302 6.41712 11.7567L4.64551 12.8177V19.184L8.38566 19.3064H8.46448C8.74021 19.3064 8.97639 19.2657 9.2126 19.1433L13.3858 17.4293C13.7008 17.3069 14.0158 17.062 14.2128 16.7762L14.4885 16.368C14.9609 15.715 15.7089 14.7358 16.1813 14.0827C16.3782 13.7969 16.4963 13.4707 16.4963 13.1442C16.4963 12.736 16.3389 12.3281 16.0632 12.0422C15.7875 11.675 15.3937 11.5116 14.9606 11.5116Z" fill="#0081C9"/>
</svg>
