<svg width="20" height="20" viewBox="0 0 20 20" fill="none" xmlns="http://www.w3.org/2000/svg">
<path d="M0 0V16.875C0 18.5986 1.60155 20 3.57143 20C4.37502 20 5.11718 19.7669 5.71429 19.3738C6.31139 19.7669 7.05355 20 7.85714 20C8.66073 20 9.4029 19.7669 10 19.3738C10.5971 19.7669 11.3393 20 12.1429 20C12.9464 20 13.6886 19.7669 14.2857 19.3738C14.8828 19.7669 15.625 20 16.4286 20C18.3984 20 20 18.5986 20 16.875V0H0ZM18.5714 16.875C18.5714 17.9101 17.6116 18.75 16.4286 18.75C15.2456 18.75 14.2857 17.9101 14.2857 16.875C14.2857 17.9101 13.3259 18.75 12.1429 18.75C10.9598 18.75 10 17.9101 10 16.875C10 17.9101 9.04016 18.75 7.85714 18.75C6.67412 18.75 5.71429 17.9101 5.71429 16.875C5.71429 17.9101 4.75445 18.75 3.57143 18.75C2.38841 18.75 1.42857 17.9101 1.42857 16.875V1.25H18.5714V16.875ZM14.2857 5H5.71429V2.5H14.2857V5ZM17.1429 8.75H2.85714V7.5H17.1429V8.75ZM17.1429 11.25H2.85714V10H17.1429V11.25ZM17.1429 13.75H2.85714V12.5H17.1429V13.75Z" fill="#0081C9"/>
</svg>
